<?xml version="1.0" encoding="UTF-8"?>
<svg id="Layer_2" data-name="Layer 2" xmlns="http://www.w3.org/2000/svg" viewBox="0 0 990 188.45">
  <g class="logo__group" data-name="Layer 1">
    <g class="logo__m">
      <path class="cls-1" d="M166.08,54.02l-31.16,74.12c-3.52,8.29-12.06,11.81-19.35,8.79-7.29-3.01-9.55-11.31-6.03-19.85L156.29,3.77h38.19v180.91h-28.39V54.02Z"/>
      <path class="cls-1" d="M15.08,90.71c8.29,0,15.08,6.78,15.08,15.08v78.9H0v-78.9c0-8.29,6.78-15.08,15.07-15.08"/>
      <polygon class="cls-1 logo__dash" points="0 3.77 32.91 3.77 117.59 184.68 84.42 184.68 0 3.77"/>
    </g>
    <path class="cls-1 logo__r logo__r--first" d="M315.09,121.61c7.04-3.77,16.33-1.76,20.1,4.52l39.2,58.54h-35.68l-26.63-40.2c-6.03-9.05-4.78-18.59,3.01-22.87M249.76,46.48c8.29,0,15.08,7.04,15.08,15.08v123.12h-30.15V61.56c0-8.04,6.78-15.08,15.07-15.08M279.91,95.73c0-7.79,6.28-14.07,14.07-14.07h14.82c18.34,0,29.9-9.3,29.9-24.87s-11.06-24.87-29.9-24.87h-74.12V3.77h74.12c37.44,0,60.81,20.35,60.81,53.02s-23.37,53.02-60.81,53.02h-14.82c-7.79,0-14.07-6.28-14.07-14.07"/>
    <path class="cls-1 logo__dot" d="M397.01,166.34c0-10.81,9.04-19.85,20.1-19.85s20.35,9.04,20.35,19.85-9.04,20.1-20.35,20.1-20.1-9.04-20.1-20.1"/>
    <path class="cls-1 logo__s" d="M464.6,54.52C464.6,23.12,489.73,0,523.9,0,560.33,0,585.21,21.86,587.22,55.03h-30.65c-1.76-17.34-14.07-28.39-32.16-28.39-15.58,0-27.64,10.8-27.64,24.62,0,9.3,5.28,16.58,16.33,21.11,7.54,3.77,10.55,10.55,7.79,18.09-3.26,9.3-13.32,11.31-23.62,7.79-23.87-8.29-32.66-25.13-32.66-43.72M460.08,127.39h30.65c1.01,20.85,15.58,34.42,36.94,34.42,18.09,0,29.65-10.05,29.65-26.13,0-9.3-4.52-16.58-16.83-22.86-7.04-4.27-9.3-10.8-6.78-17.84,3.26-9.3,13.57-11.06,22.61-7.54,22.86,8.04,32.92,26.63,32.92,45.98,0,32.16-26.13,55.03-61.06,55.03-41.21,0-66.59-22.61-68.09-61.06"/>
    <path class="cls-1 logo__t" d="M678.93,46.48c8.29,0,15.07,7.04,15.07,15.08v123.12h-30.15V61.56c0-8.04,7.04-15.08,15.08-15.08M604.3,3.77h149.5v28.14h-149.5V3.77Z"/>
    <polygon class="cls-1 logo__i" points="780.2 3.77 780.2 116.08 780.2 129.56 780.2 184.68 810.35 184.68 810.35 129.56 810.35 116.08 810.35 3.77 780.2 3.77"/>
    <path class="cls-1 logo__r logo__r--last" d="M930.7,121.61c7.04-3.77,16.33-1.76,20.1,4.52l39.2,58.54h-35.68l-26.63-40.2c-6.03-9.05-4.78-18.59,3.01-22.87M865.37,46.48c8.29,0,15.08,7.04,15.08,15.08v123.12h-30.15V61.56c0-8.04,6.78-15.08,15.07-15.08M895.53,95.73c0-7.79,6.28-14.07,14.07-14.07h14.82c18.34,0,29.9-9.3,29.9-24.87s-11.06-24.87-29.9-24.87h-74.12V3.77h74.12c37.44,0,60.81,20.35,60.81,53.02s-23.37,53.02-60.81,53.02h-14.82c-7.79,0-14.07-6.28-14.07-14.07"/>
    <path class="cls-1 logo__icon icon__asterisk" d="M534.1,76.32c-3.26-5.12-2.33-14.42,6.05-19.53l35.34-20.46,13.95,25.11-34.41,19.53c-7.44,4.19-15.81,3.26-20.93-4.65M504.33,128.87c8.37,0,14.42,7.44,14.42,15.81v40h-29.3v-40c0-9.3,6.51-15.81,14.88-15.81M418.76,61.44l13.95-25.11,34.88,20.46c6.98,4.19,10.7,12.09,6.05,20.46-3.72,6.98-12.56,8.84-20.46,4.18l-34.42-20ZM418.76,126.55l72.09-40.46-1.4-82.32h29.3l-1.39,82.32,72.08,40.46-13.95,25.58-71.15-41.86-71.62,41.86-13.95-25.58Z"/>
    <path class="cls-1 logo__icon icon__square" d="M30.15,156.54h147.41v28.14H0V61.56c0-8.04,7.03-15.08,15.08-15.08s15.08,7.04,15.08,15.08v94.98ZM177.56,3.77H0v28.14h147.41v94.98c0,8.04,6.78,15.08,15.07,15.08s15.08-7.04,15.08-15.08V3.77ZM68.55,94.22c0,11.05,9.05,20.1,20.1,20.1s20.35-9.05,20.35-20.1-9.05-19.85-20.35-19.85-20.1,9.04-20.1,19.85"/>
    <path class="cls-1 logo__icon icon__plus" d="M212.73,114.99h170.86v28.14h-70.35v41.54h-30.15v-41.54h-70.35v-28.14ZM313.24,45.31V3.77h-30.15v41.54h-70.35v28.14h70.35v11.92c0,8.04,6.79,15.08,15.08,15.08s15.08-7.04,15.08-15.08v-11.92h70.35v-28.14h-70.35Z"/>
    <path class="cls-1 logo__icon icon__circle" d="M719.72,74c10.8,0,19.85,9.05,19.85,20.1s-9.05,20.35-19.85,20.35-20.1-9.05-20.1-20.35,9.05-20.1,20.1-20.1M750.31,2.59c-4.61-1.2-7.66-1.49-10.92-1.27-8.52.58-13.34,7.46-12.82,15.23.55,8.02,5.87,12.19,12.81,14.24,25.43,7.34,44.02,31.62,44.02,63.44,0,37.94-27.39,66.08-63.82,66.08s-63.82-28.14-63.82-66.08c0-35.55,22.99-62.16,55.65-65.92V0c-50.76,3.71-86.81,42.2-86.81,94.22s40.45,94.22,94.98,94.22,94.98-39.7,94.98-94.22c0-49.34-30.21-83.63-64.25-91.64"/>
    <path class="cls-1 logo__icon icon__triangle" d="M949.55,94.1c0-10.81,9.05-19.85,20.1-19.85s20.35,9.04,20.35,19.85-9.05,20.1-20.35,20.1-20.1-9.04-20.1-20.1M985.48,0l-135.74,78.08v32.92l135.74-77.83V0ZM905.59,107.02c-8.18-4.96-17.42-2.46-21.56,5.33-4.15,7.79-1.86,16.74,5.9,21.13l95.56,54.97v-35.52l-79.89-45.91"/>
  </g>
</svg>