<?xml version="1.0" encoding="UTF-8"?>
<svg id="Layer_2" data-name="Layer 2" xmlns="http://www.w3.org/2000/svg" viewBox="0 0 1361.36 472.07">
  <g id="Layer_1-2" data-name="Layer 1">
    <g>
      <path d="M1327.85,472.07H33.69c-16.68-4.5-29.29-16.92-33.69-33.62V33.58C4.76,16.72,19.57,0,39.58,0l1283.75.07c19.88,0,38.04,20.1,38.03,39.12l-.06,394.86c0,19.42-17.62,33.15-33.46,38.01ZM1319.62,458.07c16.76-.9,27.31-12.66,27.89-28.29l-.03-387.55c0-15.86-12.48-28.25-28.39-28.25H42.44c-15.89,0-28.4,12.37-28.4,28.21v387.67c0,15.85,12.51,28.21,28.4,28.21h1277.17Z"/>
      <g>
        <path d="M839.33,354.07l-7.51-21.71-7.69-25.82-3.72-11.78-5.61-16.76-13.64-40.05c-1.88,12.76-.41,23.62-.48,35.68l-.25,42.56-.16,32.46.17,34.6c.02,4.38-2.85,12.06-7.37,12.44l-18.7,1.56c-3.23.27-8.77-.9-12.86-2.12-2.77-.83-5.4-7.34-5.42-10.32l-.24-34.95-.19-27.66.07-22.3.32-29.52-.11-26.04-.05-26.04-.18-15.2.24-32.25.14-35.99-.08-45.72c0-3.67,2.76-12.11,6.45-12.44l19.28-1.72c5.74-.51,13.64-.66,16.34,7.18l19.54,56.65,6.67,21.59,9.35,27.07,5.56,18.65,9.39,22.8.31-23.02-.1-24.92.08-15.68-.11-18.26-.07-39.23.43-22.38c.13-6.56,6.68-10.17,12.62-9.89l25.58,1.18c3.21,2.08,6.59,8.93,6.58,12.87l-.12,33.76.05,71.3.12,74.38-.66,97.53c-.06,9.09,1.61,18.1-2.47,26.56-2.4,4.98-6.52,3.72-10.95,3.59l-18.24-.51c-4.83-.14-9.7-3.17-11.29-8.08l-11.02-34.05Z"/>
        <path d="M691.57,394.66c-18.99,12.17-54.67,5.71-67.87-15.72-2.78-4.51-8.18-9.45-10.62-14.03-5.17-9.68-8.67-19.89-12.28-30.13-5.86-16.65-8.12-32.89-9.92-50.51l-2.41-23.64.46-58.3,3.01-25.96,3.95-21.29,4.41-16.84,6.74-19.11c2.65-7.51,14.13-25.37,17.53-27.94l16.79-12.71c6.74-5.11,12.98-5.85,21.18-5.82,10.23.04,19.78-.16,28.44,5.35l6.8,4.33c9.07,5.78,16.03,13.1,20.8,22.96l8.65,17.91,6.36,18.76,7.44,31.6c4.26,18.08,4.86,36.11,4.1,54.77,1.08,11.42.32,22.36-.79,33.72l-2.76,28.21-2.43,18.72c-3.65,15.2-6.73,30.19-13.3,44.34l-12.6,20.9c-5.44,9.03-12.93,14.83-21.69,20.44ZM685.01,310.2l10.92-28.87,2.14-14.97c2.8-19.61,2.79-39.08.69-58.79-1.53-14.34-6.61-27.86-12.12-41.06-3.63-8.69-14.09-14.54-22.75-13.35-8.99,1.24-17.05,7.11-19.44,16.48-2.87,11.24-7.88,22.34-9.34,34-3.14,25.06-1.46,50.25,1.84,75.07.99,7.43,3.34,13.8,6.5,20.2,3.71,8.94,10.03,16.26,17.82,21.87,9.57-.16,17.59-3.01,23.76-10.58Z"/>
        <path d="M952.27,278.03c-2.51,16.02-4.34,40.27,4.71,39.94l22.2-.81c7.92-4.33,10.81,3.74,20.26-.51,4.24-1.91,10.34.06,13.26,2.91,3.26,3.17,4.78,8.75,4.66,13.66l-.81,33.88c-.21,8.63,1.37,17.04-1.59,25.6-1.21,3.51-7.94,3.74-11.19,3.8l-23.59.42-36.88.11-15.39-.24-16.35-1c-5.3-7.73-6.44-16.62-6.1-25.97l.66-17.93-.13-14.48.05-53.81-.04-65.38-.13-20.18.18-54.97-.08-25.38c-.05-14.08-1.58-26.98,3.7-41.11l13.59-1.08h9.34s26.37,0,26.37,0l21.88.77c15.54.55,29.41-5.87,33.84,5.05,3.47,8.57,2.93,18.58,2.56,27.84l-1.56,38.93c-.12,3.04-5.56,6.33-8.18,6.5l-13.84.93-21.36-.04-20.26-.05c-2.26,12.13-2.13,22.05-.64,33.73l.7,5.44c.18,1.38,3.25,2.2,4.65,2.13l17.7-.88,25.16.39c3.44.05,6.1,1.71,6.63,5.44l.13,67.27c-.05,1.27-2.08,6.2-3.61,6.47l-19.95.49-14.55-.23c-4.87-.08-10.66,1.1-16.02,2.33Z"/>
        <path d="M495.73,396.46c-6.36-.07-12.77-.38-19.22.67-5.97.97-13.03-1.91-13.07-9.58l-.33-69.59c-.03-6.64,3.11-11.13,5.68-16.7l14.67-31.81,21.67-46.92,19.16-41.02,7.13-16.94c.38-.91.92-3.08,1.01-4,.11-1.23-3.42-2.79-4.67-2.72l-20.4,1.05-12.15.13c-7.54.08-16.14,1.71-23.76-.9-3.54-1.21-6.51-8.86-6.51-12.7l.07-52.94c0-4.43,1.28-9.54,2.54-14.52.69-2.73,7.4-1.65,9.92-1.68l24.05-.26,28.68-.03,13-.96,16.83.16,13.12,1.02c12.17.94,10.39,20.64,9.5,38.58-.72,14.56.92,28.84-.85,43.42-.97,7.99-5.73,16.75-9.06,23.86l-12.16,25.98-10.39,23.26-13.05,27.7-7.9,17.72-15.1,31.51c-.47.98-.79,4.09.03,4.37l3.67,1.26,58.62.07c3.07,2.69,5.85,6.95,5.95,11.12l1.36,59.97c.25,11.09-11.73,12.36-20.02,12.27l-24.44-.28-14.4-.24-29.18-.33Z"/>
        <path d="M1168.75,210.71l-1.54-23.1-.54-36.36.49-19.27c.17-6.84,1.56-15.31-2.27-21.32-1.4-1.85-6.94-.95-9.91-.79s-5.38-5.93-5.36-8.69l.18-20.33c.02-2.25,2.75-5.14,5.06-5.11l30.22.34c5.01.06,12.05-4.79,16.89,1.05,2.24,11.81,4.56,28.56-1.43,33.36-3.48,2.79-13.02-2.85-13.1,2.34l-.42,28.45-.11,45.04-.03,15.42c0,2.57-1.62,9.08-4.02,9.07l-14.11-.1Z"/>
        <path d="M1098.58,397.65c-29.54,13.5-54.5-17.88-63.23-49.91-2.57-9.43-5.36-18.39-5.58-28.26l-.44-19.13c-.04-1.59,2.35-5.52,3.87-5.43l6.76.43,14.51-.57c2.89-.11,7.25.51,9.31,1.68,5.7,3.21,3.39,13.3,9.97,25.68,1.53,2.88,5.4,9.09,8.57,9.27,20.42,1.11,19.86-47.18,14.53-70.18-1.33-3.37-7.42-8.99-10.88-9.99-5.43-1.57-9.68,4.6-11.45,8.49-2.43,5.34-6.66,6.18-11.85,6.01l-15.59-.51c-16.19-.53-12.12-13.8-11.23-35.42l2.13-51.6,1.42-48.51,1.74-43.27c.14-3.44,4.16-10.1,7.27-10.23l13.73-.59,36.1-.34c5.08,1.89,10.3,1.72,16.29.51,7.07-1.42,17.35,1.62,17.34,10.23l-.04,51.86c0,6.92-7.22,11.1-12.62,11.07l-25.78-.11-15.76-.5c-4.14,7.73-2.77,17.87-3.11,26.56l-1.07,27.78c7.77-8.73,16.58-16.08,27.4-12.14l10.94,3.98c14.72,7.86,23.8,31.78,26.62,49.3,2.92,18.13,6.65,35.81,4.83,54.1l-2.16,21.76c-1.42,14.32-5.58,27.5-10.27,40.98-5.79,16.65-16.06,29.58-32.3,37Z"/>
        <path d="M1256.97,202.9l.67-18.03c.25-6.63.24-12.17-1.33-19.58-2.12,7.49-2.13,12.86-3.57,19.62l-5.5,25.95c-2.56.39-6.67.19-8.64-.75-2.01-.96-2.83-5.44-3.45-8.12l-6.25-27.19-1.29,12.87-1.68,22.34-15.37,2.14c-1.34-2.58-3.4-7.24-3.39-10.48l.13-118.95c0-1.67.94-5.17,2.17-5.93,2.08-1.27,12.9-2.16,16.4-1.09,1.98.61,4.4,4.89,4.78,7.02l3.45,19.33,7.66,37.8,6.25-29.19,4.45-26.18c1.25-7.33,6.85-9.92,13.77-8.88,2.55.39,6.5,1.09,8.16,2.12s2.55,5.48,2.54,7.57l-.19,32.48-.42,11.15.1,40.38.14,36.27c0,1.68-1.19,5.62-2.64,6.02-3.22.89-11.17.14-13.99-1.29-1.74-.88-3.03-5.13-2.95-7.42Z"/>
      </g>
      <g>
        <path d="M349.22,237.75c.88,10.16-9.09,17.45-18.15,18.07-30.88,2.1-81.15-8.8-68.92-38.13,10.97-26.32,44.57-61.07,60.66-46.25,12.31,11.34-8.96,29.49,11.01,50.28l15.41,16.04Z"/>
        <path d="M207.77,346.05c-4.15-4.26-8.06-9.7-10.11-15-5.46-14.11-18.5-20.91-33.53-20.48-5.92.17-12.33-4.43-14.15-8.5-6.1-13.66,10.74-26.66,25.93-34.14,11.76-5.79,24.09-10.88,37.24-11.36,11.49-.42,19.45,7.34,21.13,18.14,3.47,22.29,1.85,56.11-14.44,70.83l-12.08.5Z"/>
        <path d="M283.72,330.3c-2.36,7.11-8.8,16.29-17.05,15.05-7.23-1.09-13.03-10.67-15.49-17.2-6.78-17.99-8.62-36.36-5.75-55.37,1.28-8.45,9.13-17.98,18.5-17.48,23.49,1.25,45.71,11,63.01,25.89,5.43,4.67,5.89,12.6,3.86,17.33-3.08,7.17-8.82,8.37-16.03,8.67-14.2.59-26.38,9.03-31.06,23.11Z"/>
        <path d="M207.04,244.75c-22.58,14.2-68.55,22.06-74.3,6.59-1.33-3.58-1.15-11.58-.33-15.37l13.15-13.67c7.37-7.66,7.13-19.81,3.65-29.16-2.69-7.24-.94-14.35,3.95-18.85,5.21-4.8,13.24-4.58,19.67-.6,25.3,15.66,61.16,54.12,34.21,71.07Z"/>
        <path d="M277.46,141.21c7.19,4.08,4.82,14.96,3.11,21.23-4.89,17.94-14.57,33.52-26.9,47.16-8.25,9.13-21.99,9.11-30.83.67-19.59-18.7-42.74-62.18-25.38-69.28,4.42-1.81,14.45-1.64,18.77.24,7.29,3.17,13.17,7.15,20.93,7.17,11.04.03,18.25-13.32,40.31-7.2Z"/>
      </g>
    </g>
  </g>
</svg>