<?xml version="1.0" encoding="UTF-8"?>
<svg id="Layer_2" data-name="Layer 2" xmlns="http://www.w3.org/2000/svg" viewBox="0 0 1302.86 576.06">
  <g id="Layer_1-2" data-name="Layer 1">
    <g>
      <path d="M427.11,170.41l-20.18,75.59-149.44.11c-4.97,0-9.65,1.94-13.09,4.79-1.65,1.36-3.08,5.22-2.32,7.12,1.61,4.03,6.27,5.89,10.65,5.92l72.01.53c13.01.1,25.48,2.77,37.17,7.89,10.6,4.65,19.05,12.1,23.84,22.48,3.99,8.66,5.5,20.17,4.6,29.67l-.72,7.65c-2.19,14.2-6.13,27.59-12.17,40.58-18.03,38.82-51.16,57.03-93.07,60.52l-13.67.78-270.71.02L70.61,170.47l75.94-.06-50.26,187.48,199.19-.03c4.43,0,8.26-2.5,11.58-4.32,2.43-2.52,4.46-5.45,2.99-8.93-.85-2.01-3.84-3.39-6.02-3.73l-6.62-1.01-72.23-.46c-12.13-.08-23.64-2.89-34.49-7.68-21.21-9.38-29.93-28.29-28.54-51.25,1.18-19.48,6.71-38.36,15.64-55.61,3.88-7.49,8.55-13.88,13.97-20.12l7.95-7.9c9.25-7.87,19.37-14.08,31.06-18.18,12.76-4.48,26.14-7.92,40.06-7.95l156.28-.3Z"/>
      <rect x="673.14" width="6" height="576.06"/>
      <g>
        <path d="M1218.51,186.49c-59.82-51.98-149.13-52.25-209.28-.28l-10.63-10.75c8.17-10.44,13.01-22.35,13.94-34.84,10.26,6.52,24.29,5.91,35.75,3.22,26.72-6.26,49.75-22.37,65.37-44.85,19.65,28,53.62,48.46,87.44,46.21,4.88-.8,9.22-2.31,13.62-4.86,1.03,13.27,5.87,24.67,14.05,35.1l-10.27,11.06Z"/>
        <g>
          <path d="M1068.79,449.2c-30.54-10.72-66.7-30.98-70.61-64.94-1.42-9.66,1.67-18.22,8.26-25.29,8.65-8.31,19.39-13.25,31.64-16.52-21.61-7.15-42.34-16.44-60.98-29.94-43.82-31.74-53.17-73.03-24.13-119.56,8.09-12.97,17.5-24.42,28.23-35.46,3.68,22.92,27.72,40.09,45.24,53.25l44.86,28.83c12.61,8.1,23.15,18.14,29.12,31.97,4.24,9.83,6.54,19.85,7.6,30.65,2.47,25.35,1.92,50.46-1.87,75.69-3.8,25.33-13.75,58.56-37.35,71.33Z"/>
          <path d="M1229.79,382.67c-2.54,34.38-39.86,55.89-70.53,66.39-23.35-11.69-33.9-46.11-37.53-71.1-3.95-27.16-4.71-54.38-1.1-81.57,1.73-13.02,5.58-24.97,12.81-35.6,6.78-9.96,15.93-16.86,26.09-23.12,15.34-9.45,30.01-18.65,44.73-28.99,16.92-12.97,38.63-28.92,42.39-51.07,39.19,39.74,66.22,92.91,22.45,138.95-20.89,21.98-50.94,36.45-79.2,45.88,20.55,5.47,42.19,18.06,39.89,40.22Z"/>
          <path d="M1126.62,246.83c-6.11,7.16-9.22,15.6-12.93,24.23-4.38-15.04-12.39-27.18-24.48-35.85l-12.04-8.64c-12.25-8.79-25.1-17.18-32.4-31.28,18.33-33.4,57.98-45.59,93.64-35.44,19.18,5.46,34.95,18.04,44.69,35.48-7.42,14.36-22.64,24.69-36.11,33.76-7.58,5.11-14.41,10.75-20.37,17.73ZM1168.4,195.17c-16.38-22.81-44.34-33.77-71.54-26.45-15.33,4.13-28.08,13.6-37.42,26.4,10.24,11.1,21.81,19.5,35.34,24.9,28.05,11.2,53.2-4.45,73.62-24.86Z"/>
        </g>
        <path d="M1138.57,195.39c0,13.75-11.15,24.89-24.89,24.89s-24.89-11.15-24.89-24.89,11.15-24.89,24.89-24.89,24.89,11.15,24.89,24.89ZM1116.95,190.05c0-4.8-3.89-8.7-8.7-8.7s-8.7,3.89-8.7,8.7,3.89,8.7,8.7,8.7,8.7-3.89,8.7-8.7Z"/>
        <g>
          <path d="M1121.54,514.22c-4.49,1.62-8.07,2.13-12.28.74-86.96-28.85-177.22-92.91-181.35-192.02-.52-12.51.27-24.11,1.76-36.53.25-2.12,2.04-4.5,3.65-6.35-14.66-30.89-8.27-61.98,9.14-90.55,9.21-15.1,20.1-28.57,32.59-40.92,2.55-2.53,7.6-2.44,10.43-1.52,3.3,1.06,6.1,4.18,6.92,7.9l1.71,7.73c5.25-7.63,7.13-15.32,7.76-23.96.31-4.24,3.9-7.79,7.08-9.16,4.92-2.11,8.34.54,12.59,2.65,6.55,3.26,14.64,2.72,21.98,1.24,25.27-5.1,46.96-20.32,61.56-41.48,3.78-5.47,12.79-6.49,16.9-.56,15.73,22.73,39.63,38.95,67.43,42.56,6.07.79,12.78.53,17.77-2.46,4.13-2.47,8.13-3.83,12.51-1.91,4.23,1.85,6.44,5.83,6.61,10.89.28,8.13,3.16,15.43,7.41,22.43l1.94-7.89c1.13-4.61,4.61-7.67,8.6-8.44,4.7-.91,8.42.95,11.63,4.48,11.15,12.27,21.55,24.59,30,38.93,16.86,28.61,23.7,59.43,8.7,90.03,3.07,3.45,3.71,7.03,4.2,11.34,2.8,25.05,1.51,49.64-6.43,73.64-14.72,44.51-46.87,79.06-84.98,105.43-26.59,18.4-55.12,32.7-85.82,43.77ZM1212.1,459.35c28.97-21.39,53.93-48.34,68.72-81.31,13.35-29.74,16.32-60.48,11.27-92.55-.24-1.5-3.7-3.14-5.19-3.77,26.09-47.15-3.36-94.18-37.36-129.14-.89-.92-4.13-1.14-5.35-.73s-3.09,2.27-3.26,3.64c-.84,6.68-2.89,11.96-6.79,17.6-7.57-9.17-13.26-20.16-13.87-32.48-.13-2.56-.79-5.02-2.9-6.23-1.44-.83-4.25-.6-5.86.49-10.86,7.32-28.21,4.46-41.13.04-21.16-7.25-39.11-20.88-51.89-39.23-1.14-1.64-3.2-2.81-4.93-2.88-1.55-.07-3.89,1.14-4.99,2.76-14.42,21.14-35.6,36.34-60.58,42.42-7.03,1.71-13.93,2.15-20.97,1.51-9.66-.88-12.31-7.29-17.31-4.44-1.64.94-2.42,3.33-2.54,5.61-.68,12.21-5.98,23.16-13.96,32.59-3.54-5.37-5.83-10.66-6.7-17.23-.2-1.53-2.16-3.68-3.46-4.03-1.49-.4-4.22.16-5.43,1.39-33.68,34.34-63.06,81.71-36.92,128.28-4.62,1.43-5.66,4.25-6.14,8.12-3.53,28.36-1.24,56.32,9.2,82.95,15.02,38.28,43.03,68.38,76.53,91.73,28.14,19.61,58.73,34.41,91.35,45.07,1.96.64,4.98-.21,6.97-.91,33.46-11.92,64.87-28.12,93.48-49.24Z"/>
          <path d="M1287.13,288.4c7.73,53.23-8.07,97.8-43.83,136.29-33.29,35.83-82.72,63.99-129.38,79.68-34.21-10.67-66.35-26.9-95.2-47.82-48.48-35.13-81.86-84.69-79.8-146.15l1.52-22.38c4.43,6.17,8.2,11.08,13.35,16.38-.7,46.19,18.41,90.21,52.94,121.34,48.24,43.49,118.12,53.59,177.22,24.86,54.86-26.67,90.92-83.9,89.59-146.36,5.31-4.73,9.01-9.89,13.6-15.84Z"/>
        </g>
      </g>
    </g>
  </g>
</svg>