<?xml version="1.0" encoding="UTF-8"?>
<svg id="Layer_1" data-name="Layer 1" xmlns="http://www.w3.org/2000/svg" viewBox="0 0 189.96 188.45">
  <path class="cls-1" d="M95.1,74c10.8,0,19.85,9.05,19.85,20.1s-9.05,20.35-19.85,20.35-20.1-9.05-20.1-20.35,9.05-20.1,20.1-20.1"/>
  <path class="cls-1" d="M125.7,2.59c-4.61-1.2-7.66-1.49-10.92-1.27-8.52.58-13.34,7.46-12.82,15.23.55,8.02,5.87,12.19,12.81,14.24,25.43,7.34,44.02,31.62,44.02,63.44,0,37.94-27.39,66.08-63.82,66.08s-63.82-28.14-63.82-66.08c0-35.55,22.99-62.16,55.65-65.92V0C36.05,3.71,0,42.2,0,94.22s40.45,94.22,94.98,94.22,94.98-39.7,94.98-94.22c0-49.34-30.21-83.63-64.25-91.64"/>
</svg>