<?xml version="1.0" encoding="UTF-8"?>
<svg id="Layer_1" data-name="Layer 1" xmlns="http://www.w3.org/2000/svg" viewBox="0 0 170.68 188.45">
  <path class="cls-1" d="M115.34,76.32c-3.26-5.12-2.33-14.42,6.05-19.53l35.34-20.46,13.95,25.11-34.41,19.53c-7.44,4.19-15.81,3.26-20.93-4.65M85.57,128.87c8.37,0,14.42,7.44,14.42,15.81v40h-29.3v-40c0-9.3,6.51-15.81,14.88-15.81M0,61.44l13.95-25.11,34.88,20.46c6.98,4.19,10.7,12.09,6.05,20.46-3.72,6.98-12.56,8.84-20.46,4.18L0,61.44ZM0,126.55l72.09-40.46-1.4-82.32h29.3l-1.39,82.32,72.08,40.46-13.95,25.58-71.15-41.86L13.95,152.12,0,126.55Z"/>
</svg>